<mxfile host="app.diagrams.net" modified="2023-02-01T09:00:04.888Z" agent="5.0 (Windows NT 10.0; Win64; x64) AppleWebKit/537.36 (KHTML, like Gecko) Chrome/109.0.0.0 Safari/537.36" etag="8CiG683ZaGnShKqfAYmH" version="20.8.13" type="github">
  <diagram name="Page-1" id="HGys0ujm9egX_t3piUTb">
    <mxGraphModel dx="1050" dy="523" grid="1" gridSize="10" guides="1" tooltips="1" connect="1" arrows="1" fold="1" page="1" pageScale="1" pageWidth="827" pageHeight="1169" math="0" shadow="0">
      <root>
        <mxCell id="0" />
        <mxCell id="1" parent="0" />
        <mxCell id="Bfm5ouzrHzipLKYUxdTs-1" value="Pool" style="swimlane;childLayout=stackLayout;resizeParent=1;resizeParentMax=0;startSize=20;html=1;" vertex="1" parent="1">
          <mxGeometry x="220" y="50" width="550" height="660" as="geometry" />
        </mxCell>
        <mxCell id="Bfm5ouzrHzipLKYUxdTs-2" value="User" style="swimlane;startSize=20;html=1;" vertex="1" parent="Bfm5ouzrHzipLKYUxdTs-1">
          <mxGeometry y="20" width="250" height="640" as="geometry" />
        </mxCell>
        <mxCell id="Bfm5ouzrHzipLKYUxdTs-5" value="" style="ellipse;html=1;shape=startState;fillColor=#000000;strokeColor=#000000;" vertex="1" parent="Bfm5ouzrHzipLKYUxdTs-2">
          <mxGeometry x="99.99999999999955" y="40" width="30" height="30" as="geometry" />
        </mxCell>
        <mxCell id="Bfm5ouzrHzipLKYUxdTs-6" value="" style="edgeStyle=orthogonalEdgeStyle;html=1;verticalAlign=bottom;endArrow=open;endSize=8;strokeColor=#000000;rounded=0;entryX=0.5;entryY=0;entryDx=0;entryDy=0;" edge="1" source="Bfm5ouzrHzipLKYUxdTs-5" parent="Bfm5ouzrHzipLKYUxdTs-2" target="Bfm5ouzrHzipLKYUxdTs-11">
          <mxGeometry relative="1" as="geometry">
            <mxPoint x="115" y="100" as="targetPoint" />
          </mxGeometry>
        </mxCell>
        <mxCell id="Bfm5ouzrHzipLKYUxdTs-11" value="Chọn tab đăng ký mới" style="rounded=1;whiteSpace=wrap;html=1;strokeColor=#000000;" vertex="1" parent="Bfm5ouzrHzipLKYUxdTs-2">
          <mxGeometry x="55" y="120" width="120" height="40" as="geometry" />
        </mxCell>
        <mxCell id="Bfm5ouzrHzipLKYUxdTs-16" value="Chọn loại dịch vụ cần đăng ký" style="rounded=1;whiteSpace=wrap;html=1;strokeColor=#000000;" vertex="1" parent="Bfm5ouzrHzipLKYUxdTs-2">
          <mxGeometry x="50" y="220" width="120" height="40" as="geometry" />
        </mxCell>
        <mxCell id="Bfm5ouzrHzipLKYUxdTs-20" value="Nhập thông tin, gửi đăng ký" style="rounded=1;whiteSpace=wrap;html=1;strokeColor=#000000;" vertex="1" parent="Bfm5ouzrHzipLKYUxdTs-2">
          <mxGeometry x="50" y="310" width="120" height="40" as="geometry" />
        </mxCell>
        <mxCell id="Bfm5ouzrHzipLKYUxdTs-37" value="" style="ellipse;html=1;shape=endState;fillColor=#000000;strokeColor=#000000;" vertex="1" parent="Bfm5ouzrHzipLKYUxdTs-2">
          <mxGeometry x="100" y="487.5" width="30" height="30" as="geometry" />
        </mxCell>
        <mxCell id="Bfm5ouzrHzipLKYUxdTs-14" style="rounded=0;orthogonalLoop=1;jettySize=auto;html=1;entryX=0;entryY=0.5;entryDx=0;entryDy=0;strokeColor=#000000;endArrow=open;endFill=0;" edge="1" parent="Bfm5ouzrHzipLKYUxdTs-1" source="Bfm5ouzrHzipLKYUxdTs-11" target="Bfm5ouzrHzipLKYUxdTs-13">
          <mxGeometry relative="1" as="geometry" />
        </mxCell>
        <mxCell id="Bfm5ouzrHzipLKYUxdTs-15" style="rounded=0;orthogonalLoop=1;jettySize=auto;html=1;strokeColor=#000000;endArrow=open;endFill=0;entryX=1;entryY=0.5;entryDx=0;entryDy=0;" edge="1" parent="Bfm5ouzrHzipLKYUxdTs-1" source="Bfm5ouzrHzipLKYUxdTs-13" target="Bfm5ouzrHzipLKYUxdTs-16">
          <mxGeometry relative="1" as="geometry">
            <mxPoint x="339.99999999999955" y="340" as="targetPoint" />
          </mxGeometry>
        </mxCell>
        <mxCell id="Bfm5ouzrHzipLKYUxdTs-18" style="rounded=0;orthogonalLoop=1;jettySize=auto;html=1;entryX=0;entryY=0.5;entryDx=0;entryDy=0;strokeColor=#000000;endArrow=open;endFill=0;" edge="1" parent="Bfm5ouzrHzipLKYUxdTs-1" source="Bfm5ouzrHzipLKYUxdTs-16" target="Bfm5ouzrHzipLKYUxdTs-17">
          <mxGeometry relative="1" as="geometry" />
        </mxCell>
        <mxCell id="Bfm5ouzrHzipLKYUxdTs-19" style="rounded=0;orthogonalLoop=1;jettySize=auto;html=1;strokeColor=#000000;endArrow=open;endFill=0;entryX=1;entryY=0.5;entryDx=0;entryDy=0;" edge="1" parent="Bfm5ouzrHzipLKYUxdTs-1" source="Bfm5ouzrHzipLKYUxdTs-17" target="Bfm5ouzrHzipLKYUxdTs-20">
          <mxGeometry relative="1" as="geometry">
            <mxPoint x="334.99999999999955" y="360" as="targetPoint" />
          </mxGeometry>
        </mxCell>
        <mxCell id="Bfm5ouzrHzipLKYUxdTs-25" style="rounded=0;orthogonalLoop=1;jettySize=auto;html=1;entryX=0;entryY=0.5;entryDx=0;entryDy=0;strokeColor=#000000;endArrow=open;endFill=0;" edge="1" parent="Bfm5ouzrHzipLKYUxdTs-1" source="Bfm5ouzrHzipLKYUxdTs-20" target="Bfm5ouzrHzipLKYUxdTs-23">
          <mxGeometry relative="1" as="geometry" />
        </mxCell>
        <mxCell id="Bfm5ouzrHzipLKYUxdTs-3" value="Lane 2" style="swimlane;startSize=20;html=1;" vertex="1" parent="Bfm5ouzrHzipLKYUxdTs-1">
          <mxGeometry x="250" y="20" width="300" height="640" as="geometry" />
        </mxCell>
        <mxCell id="Bfm5ouzrHzipLKYUxdTs-13" value="Trả về danh sách dịch vụ hành chính" style="rounded=1;whiteSpace=wrap;html=1;strokeColor=#000000;" vertex="1" parent="Bfm5ouzrHzipLKYUxdTs-3">
          <mxGeometry x="50" y="120" width="120" height="40" as="geometry" />
        </mxCell>
        <mxCell id="Bfm5ouzrHzipLKYUxdTs-17" value="Trả về thông tin dịch vụ, chi phí nếu có, form đăng ký" style="rounded=1;whiteSpace=wrap;html=1;strokeColor=#000000;" vertex="1" parent="Bfm5ouzrHzipLKYUxdTs-3">
          <mxGeometry x="60" y="215" width="120" height="50" as="geometry" />
        </mxCell>
        <mxCell id="Bfm5ouzrHzipLKYUxdTs-30" style="rounded=0;orthogonalLoop=1;jettySize=auto;html=1;entryX=0.5;entryY=0;entryDx=0;entryDy=0;strokeColor=#000000;endArrow=open;endFill=0;" edge="1" parent="Bfm5ouzrHzipLKYUxdTs-3" source="Bfm5ouzrHzipLKYUxdTs-21" target="Bfm5ouzrHzipLKYUxdTs-26">
          <mxGeometry relative="1" as="geometry" />
        </mxCell>
        <mxCell id="Bfm5ouzrHzipLKYUxdTs-31" style="edgeStyle=orthogonalEdgeStyle;rounded=0;orthogonalLoop=1;jettySize=auto;html=1;entryX=0.5;entryY=0;entryDx=0;entryDy=0;strokeColor=#000000;endArrow=open;endFill=0;" edge="1" parent="Bfm5ouzrHzipLKYUxdTs-3" source="Bfm5ouzrHzipLKYUxdTs-21" target="Bfm5ouzrHzipLKYUxdTs-36">
          <mxGeometry relative="1" as="geometry">
            <mxPoint x="205.6199999999999" y="453" as="targetPoint" />
            <Array as="points">
              <mxPoint x="123" y="435" />
              <mxPoint x="210" y="435" />
            </Array>
          </mxGeometry>
        </mxCell>
        <mxCell id="Bfm5ouzrHzipLKYUxdTs-21" value="" style="rhombus;whiteSpace=wrap;html=1;strokeColor=#000000;" vertex="1" parent="Bfm5ouzrHzipLKYUxdTs-3">
          <mxGeometry x="82.5" y="370" width="80" height="50" as="geometry" />
        </mxCell>
        <mxCell id="Bfm5ouzrHzipLKYUxdTs-24" style="edgeStyle=orthogonalEdgeStyle;rounded=0;orthogonalLoop=1;jettySize=auto;html=1;strokeColor=#000000;endArrow=open;endFill=0;" edge="1" parent="Bfm5ouzrHzipLKYUxdTs-3" source="Bfm5ouzrHzipLKYUxdTs-23" target="Bfm5ouzrHzipLKYUxdTs-21">
          <mxGeometry relative="1" as="geometry" />
        </mxCell>
        <mxCell id="Bfm5ouzrHzipLKYUxdTs-23" value="Kiểm tra thông tin" style="rounded=1;whiteSpace=wrap;html=1;strokeColor=#000000;" vertex="1" parent="Bfm5ouzrHzipLKYUxdTs-3">
          <mxGeometry x="75" y="310" width="95" height="40" as="geometry" />
        </mxCell>
        <mxCell id="Bfm5ouzrHzipLKYUxdTs-26" value="Báo lỗi" style="rounded=1;whiteSpace=wrap;html=1;strokeColor=#000000;" vertex="1" parent="Bfm5ouzrHzipLKYUxdTs-3">
          <mxGeometry x="20" y="440" width="80" height="40" as="geometry" />
        </mxCell>
        <mxCell id="Bfm5ouzrHzipLKYUxdTs-36" value="Lưu thông tin, tạo hóa đơn nếu có, trả về thông báo đăng ký thành công. Quay lại màn hình chọn dịch vụ" style="rounded=1;whiteSpace=wrap;html=1;strokeColor=#000000;" vertex="1" parent="Bfm5ouzrHzipLKYUxdTs-3">
          <mxGeometry x="150" y="455" width="120" height="95" as="geometry" />
        </mxCell>
        <mxCell id="Bfm5ouzrHzipLKYUxdTs-41" value="Thiếu thông tin" style="text;html=1;align=center;verticalAlign=middle;resizable=0;points=[];autosize=1;strokeColor=none;fillColor=none;" vertex="1" parent="Bfm5ouzrHzipLKYUxdTs-3">
          <mxGeometry x="-10" y="400" width="100" height="30" as="geometry" />
        </mxCell>
        <mxCell id="Bfm5ouzrHzipLKYUxdTs-38" style="edgeStyle=orthogonalEdgeStyle;rounded=0;orthogonalLoop=1;jettySize=auto;html=1;entryX=1;entryY=0.5;entryDx=0;entryDy=0;strokeColor=#000000;endArrow=open;endFill=0;" edge="1" parent="Bfm5ouzrHzipLKYUxdTs-1" source="Bfm5ouzrHzipLKYUxdTs-36" target="Bfm5ouzrHzipLKYUxdTs-37">
          <mxGeometry relative="1" as="geometry" />
        </mxCell>
        <mxCell id="Bfm5ouzrHzipLKYUxdTs-40" style="edgeStyle=orthogonalEdgeStyle;rounded=0;orthogonalLoop=1;jettySize=auto;html=1;entryX=0.5;entryY=1;entryDx=0;entryDy=0;strokeColor=#000000;endArrow=open;endFill=0;" edge="1" parent="Bfm5ouzrHzipLKYUxdTs-1" source="Bfm5ouzrHzipLKYUxdTs-26" target="Bfm5ouzrHzipLKYUxdTs-20">
          <mxGeometry relative="1" as="geometry" />
        </mxCell>
        <mxCell id="Bfm5ouzrHzipLKYUxdTs-42" value="Đủ thông tin" style="text;html=1;align=center;verticalAlign=middle;resizable=0;points=[];autosize=1;strokeColor=none;fillColor=none;" vertex="1" parent="1">
          <mxGeometry x="605" y="475" width="90" height="30" as="geometry" />
        </mxCell>
      </root>
    </mxGraphModel>
  </diagram>
</mxfile>
